<?xml version="1.0" encoding="UTF-8"?>
<svg id="Layer_1" data-name="Layer 1" xmlns="http://www.w3.org/2000/svg" viewBox="0 0 571.5 550.65">
  <defs>
    <style>
      .cls-1 {
        fill: #362b5e;
      }

      .cls-2 {
        fill: #f4ba53;
      }

      .cls-3 {
        fill: #ee6a62;
      }

      .cls-4 {
        fill: #de4b39;
      }

      .cls-5 {
        fill: #fae19d;
      }

      .cls-6 {
        fill: #604c9e;
      }

      .cls-7 {
        stroke: #1c8479;
        stroke-linecap: square;
        stroke-width: 11.9px;
      }

      .cls-7, .cls-8, .cls-9, .cls-10, .cls-11, .cls-12, .cls-13, .cls-14 {
        fill: none;
        stroke-linejoin: round;
      }

      .cls-8 {
        stroke: #3c3067;
        stroke-width: 9.67px;
      }

      .cls-8, .cls-9, .cls-10, .cls-11, .cls-12, .cls-13, .cls-14 {
        stroke-linecap: round;
      }

      .cls-9 {
        stroke: #50497d;
      }

      .cls-9, .cls-13, .cls-14 {
        stroke-width: 8.18px;
      }

      .cls-15 {
        fill: #f58f87;
      }

      .cls-10 {
        stroke-width: 7.44px;
      }

      .cls-10, .cls-11, .cls-12 {
        stroke: #3c3068;
      }

      .cls-11 {
        stroke-width: 11.16px;
      }

      .cls-12 {
        stroke-width: 14.14px;
      }

      .cls-13 {
        stroke: #50497e;
      }

      .cls-16 {
        fill: #8b9dc6;
      }

      .cls-14 {
        stroke: #504a7e;
      }

      .cls-17 {
        fill: #f2f6f7;
      }

      .cls-18 {
        fill: #78699f;
      }

      .cls-19 {
        fill: #63bfc4;
      }
    </style>
  </defs>
  <g id="Generative_Object" data-name="Generative Object">
    <g>
      <g>
        <g>
          <path class="cls-2" d="M457.52,227.37c-9.07-.1-18.15.05-27.22-.11.28-1.92-.18-3.71-.48-5.6-7.53-48-39.1-87.84-90.25-107.14-.35-.13-.7-.26-1.05-.39-98.11-36.25-188.44,20.06-207.3,107.51-.41,1.92-1.32,3.66-1.02,5.65-9.43-.02-18.86.12-28.3.14,4.5-115.19,149.46-184.67,264.37-129.62,51.01,24.44,93.04,77.12,91.25,129.57Z"/>
          <path class="cls-5" d="M456.34,138.04c5.85,8.12,34.79,62.32,29.66,67.2-.16.15-3.49-.65-4.46,1.33-2.47,5.03-.23,15.17-1.02,20.9-7.66-.04-15.33-.02-22.99-.1,1.8-52.45-40.24-105.13-91.25-129.57-114.91-55.05-259.87,14.43-264.37,129.62-9.44.02-18.88.07-28.31.11.05-5.27.92-10.32,1.19-15.55.09-1.68-1.23-2.42-.29-7.82l9.51,1.5C119.82,62.38,313.75,13.92,430.31,121.72c8.13,7.52,12,20.76,26.03,16.32Z"/>
          <path class="cls-3" d="M339.57,114.52c51.15,19.31,82.72,59.15,90.25,107.14.3,1.89.76,3.68.48,5.6-9.81-.17-19.55-.35-29.35-.65-11.88-128.78-229.47-129.49-240.49.48-4.66-.59-11.63.17-16.7.11,2.91-68.41,73.68-117.13,149.76-113.15,15.09.79,29.31,5.9,44.06,8.12l.93-8.05c.35.13.7.26,1.05.39Z"/>
          <path class="cls-4" d="M400.95,226.61c-8.4-.26-16.8-.76-25.2-1.08-.35-.01-.7-.03-1.05-.04.35.01.7.03,1.05.04,1.14-1.86-.31-3.45-.66-4.84-23.88-93.75-156.6-96.74-189.11,2.78-.63,1.92-.78,3.68-2.31,5.3-5.56.58-11.13,1.14-16.69,1.72l-.96-.57c-.21-3.69-2.9-2.49-5.57-2.83,11.02-129.97,228.61-129.26,240.49-.48Z"/>
          <path class="cls-2" d="M456.34,138.04c-14.03,4.45-17.89-8.79-26.03-16.32C313.75,13.92,119.82,62.38,84,205.67l-9.51-1.5C102.9,41.16,354.88-2.79,456.34,138.04Z"/>
          <path class="cls-15" d="M339.57,114.52c-.35-.13-.7-.26-1.05-.39l-.93,8.05c-14.74-2.22-28.96-7.33-44.06-8.12-76.09-3.99-146.85,44.73-149.76,113.15-4.52-.05-9.05.1-13.56.09-.3-2,.61-3.73,1.02-5.65,18.85-87.45,109.19-143.76,207.3-107.51.35.13.7.26,1.05.39Z"/>
        </g>
        <g>
          <path class="cls-6" d="M103.47,244.93c12.23,111.48,150.34,174.65,261.78,118.24,45.75-23.15,85.86-71.19,87.6-118.24,10.67-.31,21.27.16,31.88,1.35-25.57,189.11-315.9,223.51-396.26,50.18-.14-.31-.28-.61-.42-.92,5.01-.84,9.5,2.28,9.27-3.22-.09-2.28-7.32-14.82-8.2-18.05-2.57-9.47-2.38-20.01-6.15-29.33,6.79-.07,13.71-.17,20.49,0Z"/>
          <path class="cls-19" d="M167.84,244.41c21.42,117.38,207.93,113.81,225.43-.99,6.75,2.52,21.84.01,27.31,1.51,2.42.66,2.79,4.86,6.98,5.44-.04.3-.12.59-.16.89-16.5,139.03-267.6,151.99-294.21.89-.05-.3-.14-.59-.19-.89,8.8-10.38,21.52-4.65,34.7-7.84.06.33.08.66.14.99Z"/>
          <path class="cls-16" d="M133.18,252.15c26.62,151.1,277.71,138.14,294.21-.89.04-.3.12-.59.16-.89,5.52.76,6.87-4.78,9.42-5.44,2.78-.71,12.02.11,15.88,0-1.75,47.05-41.86,95.09-87.6,118.24-111.45,56.41-249.55-6.76-261.78-118.24,4.67.12,16.63-.85,19.98,0,2.06.52,5.03,6.88,9.36,5.45.05.3.14.59.19.89s.13.59.19.89Z"/>
          <path class="cls-18" d="M82.98,244.93c3.77,9.32,3.58,19.87,6.15,29.33.88,3.23,8.1,15.78,8.2,18.05.23,5.49-4.27,2.38-9.27,3.22.14.31.28.62.42.92-.14-.31-.28-.61-.42-.92-7.36-16.12-11.92-32.85-13.92-50.13,2.92-.75,5.91-.44,8.85-.48Z"/>
          <g>
            <path class="cls-17" d="M400.95,226.61c9.81.3,19.54.48,29.35.65,9.07.16,18.15.01,27.22.11,7.66.08,15.33.07,22.99.1,2.08,0,4.17.02,6.25.03-.09,2.17-.56,4.18-.81,6.34-.49,4.13-.67,8.3-1.23,12.43-10.61-1.19-21.21-1.66-31.88-1.35-3.86.11-13.1-.71-15.88,0-2.54.65-3.9,6.2-9.42,5.44-.04.3-.12.59-.16.89.04-.3.12-.59.16-.89-4.19-.58-4.56-4.78-6.98-5.44-5.47-1.5-20.56,1.02-27.31-1.51-17.51,114.8-204.01,118.37-225.43.99-.06-.33-.09-.66-.14-.99-.72-4.15-.85-8.38-1.54-12.55l.84-.38c5.56-.57,11.13-1.14,16.69-1.72,1.53-1.62,1.68-3.37,2.31-5.3,32.51-99.52,165.23-96.53,189.11-2.78.35,1.39,1.8,2.97.66,4.84-.35-.01-.7-.03-1.05-.04.35.01.7.03,1.05.04,8.4.32,16.8.82,25.2,1.08Z"/>
            <path class="cls-2" d="M281.26,181.49l21.65,41.8,50.43,1.98-37.79,30.49c-3.01,6.31,11.99,35.27,12.63,42.49l-1.18.84c-10.43-2.53-35.08-20.27-44.23-21.31-6.31-.72-44.54,22.18-46.84,20.13,1.76-6.77,13.95-37.42,11.8-42.15-2.36-5.19-26.13-19.65-32.56-25.88-1.16-1.13-2.49-2.66-3.33-4.01-.35.03-.69.08-1.04.11.35-.03.69-.08,1.04-.11,16.2-1.26,32.31-1.6,48.5-2.64l20.92-41.74Z"/>
          </g>
        </g>
      </g>
      <g>
        <path class="cls-1" d="M182.87,498.57c.92-.58,8.86-.28,10.76,1.35,3.17,2.73,9.77,26.24,12.81,31.14l1.54-32.04h9.22c-1.22,6.69.96,49.05-3.59,51-.35.15-7.08-.68-7.68-1.35-4.32-4.88-7.99-26.35-12.81-32.95-5.12,7.38,1.63,25.76-1.54,32.04-1,1.99-8.59,1.69-9.22.9-1.64-2.05-1.8-48.64.51-50.1Z"/>
        <path class="cls-1" d="M256.64,498.57c18.06-2.78,24.5,16.59,18.44,18.95-12.05,4.7-3.99-15.1-17.42-10.83-5.4,1.72-5.29,32.82,0,34.3,8.19,1.3,9.55-7.82,7.68-13.09-.19-.53-4.67.1-3.07-4.51h14.34c2.26,12.33-2,28.51-19.98,25.72-17.76-2.76-18.22-47.74,0-50.55Z"/>
        <path class="cls-1" d="M297.63,498.57c18.08-3.49,25.58,16.57,19.47,18.95-11.49,4.48-4.57-9.25-12.3-10.83-13.31-4.38-12.96,41.73,1.02,33.4,7.45-4.44-.61-12.81-2.56-16.7h15.37c2.25,12.35-1.98,28.5-19.98,25.72s-17.89-47.29-1.02-50.55Z"/>
        <path class="cls-1" d="M347.83,498.57c16.56-2.48,30.49,19.54,11.27,18.95.31-5.44-2.31-13.1-10.25-10.83-5.53,1.58-5.23,32.72,0,34.3,9.14,2.77,13.04-13.02,4.1-14.44l-.51-3.16h15.37c2.31,12.59-1.99,28.57-19.98,25.72-18.07-2.86-18.33-47.8,0-50.55Z"/>
        <path class="cls-1" d="M389.84,498.57c18.13-2.79,24.11,16.74,18.44,18.95-12.05,4.7-3.99-15.1-17.42-10.83-5.4,1.72-5.29,32.82,0,34.3,12.86-.09,7.33-12.23,3.59-17.6h15.37c4.07,13.62-7.19,33.46-25.1,23.92-9.44-5.03-12.53-46.02,5.12-48.74Z"/>
        <path class="cls-1" d="M46.6,498.57c18.03-2.7,26.11,17.98,12.3,14.44-1.21-.31-9.78-12.59-13.83-4.06-5.08,10.7,33.11,14.68,19.47,34.3-8.98,12.91-30.24,5.5-28.18-8.57,12.16-3.22,8.78,6.28,13.32,7.22,2.5.52,7.26-2.55,7.68-4.06,2.62-9.2-19.81-11.54-21.52-23.47-.95-6.64,2.49-14.56,10.76-15.8Z"/>
        <path class="cls-1" d="M495.37,498.57c10.55-5.43,14.94,13.54,17.42,18.95,7.8-7.84,2.44-20.74,18.95-18.5.89,1.44-12.57,24.6-13.32,28.88-.63,3.6,1.54,20.01-1.54,21.21-12.32,4.82-6.45-14.95-7.68-21.21-.57-2.91-16.19-28.12-13.83-29.33Z"/>
        <path class="cls-1" d="M70.17,498.57c1.28-.79,30.35-.67,31.25.45,6.23,7.73-9.74,7.5-10.25,8.12-1.86,2.31,2.18,35.76,0,40.62-1.08,2.41-8.76,3.5-10.25,0-1.97-4.62,3.55-37.48,1.02-40.62-1.07-1.33-8.98.24-10.76-.45-2.26-.88-1.92-7.57-1.02-8.12Z"/>
        <path class="cls-1" d="M224.88,498.57l9.73.45-2.56,51c-1.73-1.97-6.42.29-7.68-2.26-2.91-5.87,1.82-40.36.51-49.19Z"/>
        <g>
          <path class="cls-1" d="M156.23,497.66c1.04-.27,2.86.18,4.1,0,2.45,5.75,17.3,47.5,15.88,50.1-.91,1.67-7.68,1.84-8.71,1.35-1.11-.53-1.39-8.09-4.1-9.03-15.02-5.21-12.69,8.71-16.39,9.93-.82.27-16.61-.62-17.42-.9-2.69-.93-7.47-20.06-13.32-20.76-4.38,1.29,3.28,25.36-8.2,21.66-3.31-1.07-.67-44.93-1.54-51,13.48-2.51,33.04.47,30.74,16.25-.83,5.71-9.31,9.99-9.22,12.64s10.51,15.18,10.76,19.41c4.57-5.82,12.63-48.39,17.42-49.64Z"/>
          <path class="cls-17" d="M116.28,506.69c15.81-2.41,13.69,16.04-.51,13.09l.51-13.09Z"/>
          <path class="cls-17" d="M157.26,516.62c3.59,1.54,6.96,15.05,4.1,16.25-13.56,2.65-4.61-9.24-4.1-16.25Z"/>
        </g>
        <g>
          <path class="cls-1" d="M420.58,498.57c15.51-1.94,36,1.74,31.25,19.41-.8,2.99-7.99,7.61-8.2,8.12-1.71,4.26,21.4,27.93,3.59,23.92-5.31-1.2-11.19-20.88-14.34-21.66-6.82-1.7-2.06,16.38-3.59,19.41-1,1.99-8.59,1.69-9.22.9-1.64-2.05.88-43.93.51-50.1Z"/>
          <path class="cls-17" d="M429.8,506.69c15.8-2.53,17.17,13.11,2.05,14.44l-2.56-2.26.51-12.19Z"/>
        </g>
        <g>
          <path class="cls-1" d="M474.88,497.66c.68-.15,4.69-.15,5.12,0,2.77.99,18.01,47.65,16.91,50.1-.76,1.68-8.83,1.84-9.73,1.35-1.04-.56-.62-6.72-3.07-8.12-.65-.37-12.26-1.25-13.32-.9-4.01,1.3-1.37,13.45-13.32,9.93.3-6.74,12.71-51.34,17.42-52.35Z"/>
          <path class="cls-17" d="M476.93,514.81c3.96,7.88,12.35,23.75-5.64,16.7l5.64-16.7Z"/>
        </g>
      </g>
    </g>
    <g>
      <path class="cls-14" d="M550.19,411.91c18.51-4.48,25.3,22.7,4.1,24.01-16.98,1.05-20.96-19.93-4.1-24.01Z"/>
      <path class="cls-13" d="M541.99,89.12c18.83-.14,18.81-25.52-.19-25.38-19.03.14-18.46,25.52.19,25.38Z"/>
      <path class="cls-7" d="M132.07,246.83c.21,1.19.55,2.36.74,3.55.05.3.14.59.19.89s.13.59.19.89c26.62,151.1,277.71,138.14,294.21-.89.04-.3.12-.59.16-.89.17-1.19.45-2.38.63-3.57"/>
      <path class="cls-8" d="M74.49,204.17C102.9,41.16,354.88-2.79,456.34,138.04c5.85,8.12,34.79,62.32,29.66,67.2"/>
      <line class="cls-8" x1="280.72" y1="49.97" x2="280.72" y2="4.84"/>
      <path class="cls-11" d="M354.49,225.07c6.77-.29,13.48.17,20.21.42.35.01.7.03,1.05.04,8.4.32,16.8.82,25.2,1.08,9.81.3,19.54.48,29.35.65,9.07.16,18.15.01,27.22.11,7.66.08,15.33.07,22.99.1,2.08,0,4.17.02,6.25.03,19.77.09,39.55.21,59.32.3"/>
      <path class="cls-11" d="M18.43,227.81c18.39-.08,36.78-.19,55.16-.27,9.44-.04,18.87-.09,28.31-.11s18.87-.16,28.3-.14c4.52,0,9.05-.14,13.56-.09,5.07.06,12.04-.69,16.7-.11,2.68.34,5.37-.87,5.57,2.83l.12.95c.69,4.17.82,8.4,1.54,12.55.06.33.08.66.14.99,21.42,117.38,207.93,113.81,225.43-.99.58-3.8.65-7.65,1.26-11.44"/>
      <path class="cls-10" d="M166.99,230.49c5.56-.57,11.13-1.14,16.69-1.72,9.02-.93,18.08-2.08,27.12-2.79.35-.03.69-.08,1.04-.11,16.2-1.26,32.31-1.6,48.5-2.64l20.92-41.74,21.65,41.8,50.43,1.98-37.79,30.49c-3.01,6.31,11.99,35.27,12.63,42.49.1,1.17.09,1.15-1.18.84-10.43-2.53-35.08-20.27-44.23-21.31-6.31-.72-44.54,22.18-46.84,20.13,1.76-6.77,13.95-37.42,11.8-42.15-2.36-5.19-26.13-19.65-32.56-25.88"/>
      <path class="cls-12" d="M485.96,233.85c-.49,4.13-.67,8.3-1.23,12.43-25.57,189.11-315.9,223.51-396.26,50.18-.14-.31-.28-.61-.42-.92-7.36-16.12-11.92-32.85-13.92-50.13-.45-3.87-.62-7.77-1.02-11.63"/>
      <line class="cls-11" x1="281.75" y1="411.91" x2="281.75" y2="457.95"/>
      <path class="cls-11" d="M375.1,220.7c-23.88-93.75-156.6-96.74-189.11,2.78"/>
      <path class="cls-11" d="M429.83,221.67c-7.53-48-39.1-87.84-90.25-107.14-.35-.13-.7-.26-1.05-.39-98.11-36.25-188.44,20.06-207.3,107.51"/>
      <path class="cls-9" d="M17.44,73c19-1.16,21.27,24.51,2.05,25.7-19.25,1.19-21.02-24.54-2.05-25.7Z"/>
    </g>
  </g>
</svg>